<?xml version="1.0" standalone="no"?>
<!DOCTYPE svg PUBLIC "-//W3C//DTD SVG 20010904//EN"
 "http://www.w3.org/TR/2001/REC-SVG-20010904/DTD/svg10.dtd">
<svg version="1.0" xmlns="http://www.w3.org/2000/svg"
 width="513.000000pt" height="513.000000pt" viewBox="0 0 513.000000 513.000000"
 preserveAspectRatio="xMidYMid meet">
<metadata>
Created by potrace 1.14, written by Peter Selinger 2001-2017
</metadata>
<g transform="translate(0.000000,513.000000) scale(0.100000,-0.100000)"
fill="#000000" stroke="none">
<path d="M983 5123 l-973 -3 0 -2560 0 -2560 2218 2 2217 3 75 22 c294 84 500
285 582 570 l23 78 0 1900 0 1900 -32 93 c-41 121 -99 217 -186 308 -107 113
-220 181 -382 230 -56 17 -133 18 -1315 19 -690 0 -1693 -1 -2227 -2z m827
-2563 l0 -2200 -440 0 -440 0 0 2200 0 2200 440 0 440 0 0 -2200z m1500 2173
c186 -45 315 -101 460 -198 499 -332 711 -953 518 -1520 -51 -152 -117 -269
-226 -407 l-60 -75 20 -24 c137 -172 237 -390 275 -603 22 -120 22 -332 0
-452 -86 -476 -427 -872 -882 -1023 -193 -64 -193 -64 -747 -68 l-508 -4 0
440 0 440 473 3 472 3 76 36 c341 163 341 635 0 798 l-76 36 -407 3 -408 3 0
439 0 439 428 3 c416 3 428 4 482 25 111 46 208 143 252 253 32 79 32 241 0
320 -44 110 -141 207 -252 253 -54 22 -64 22 -532 25 l-478 3 0 440 0 440 518
-4 c479 -4 523 -5 602 -24z"/>
</g>
</svg>
